<?xml version="1.0" encoding="UTF-8" standalone="no"?>
<!-- Created with Inkscape (http://www.inkscape.org/) -->

<svg
   width="1372.0004"
   height="240"
   viewBox="0 0 1372.0003 240"
   version="1.1"
   id="svg1"
   sodipodi:docname="rtemis-logo.svg"
   inkscape:version="1.4.3 (0d15f75, 2025-12-25)"
   xmlns:inkscape="http://www.inkscape.org/namespaces/inkscape"
   xmlns:sodipodi="http://sodipodi.sourceforge.net/DTD/sodipodi-0.dtd"
   xmlns:xlink="http://www.w3.org/1999/xlink"
   xmlns="http://www.w3.org/2000/svg"
   xmlns:svg="http://www.w3.org/2000/svg">
  <sodipodi:namedview
     id="namedview1"
     pagecolor="#505050"
     bordercolor="#eeeeee"
     borderopacity="1"
     inkscape:showpageshadow="0"
     inkscape:pageopacity="0"
     inkscape:pagecheckerboard="0"
     inkscape:deskcolor="#505050"
     inkscape:zoom="0.5976776"
     inkscape:cx="946.99884"
     inkscape:cy="109.59086"
     inkscape:window-width="1728"
     inkscape:window-height="1056"
     inkscape:window-x="0"
     inkscape:window-y="33"
     inkscape:window-maximized="1"
     inkscape:current-layer="svg1" />
  <defs
     id="defs1">
    <style
       type="text/css"
       id="style1"><![CDATA[
         .logo-text { fill: #1a1a1a; }
         @media (prefers-color-scheme: dark) {
            .logo-text { fill: #e5e5e5; }
         }
      ]]></style>
    <linearGradient
       inkscape:collect="always"
       xlink:href="#linearGradient4"
       id="linearGradient5"
       x1="77.323517"
       y1="51.63438"
       x2="450.67447"
       y2="424.98535"
       gradientUnits="userSpaceOnUse"
       gradientTransform="matrix(0.5035461,0,0,0.5035461,1106.129,2.5458241e-5)" />
    <linearGradient
       id="linearGradient4"
       inkscape:collect="always">
      <stop
         style="stop-color:#ff004c;stop-opacity:1;"
         offset="0"
         id="stop4" />
      <stop
         style="stop-color:#ff9f20;stop-opacity:1;"
         offset="1"
         id="stop5" />
    </linearGradient>
  </defs>
  <path
     id="rtemis"
     class="logo-text"
     style="font-size:383.378px;line-height:1.25;font-family:'DM Serif Text';-inkscape-font-specification:'DM Serif Text';font-variant-ligatures:none;white-space:pre;display:inline;stroke-width:1"
     d="m 0,234.69193 v -7.20378 l 5.6872041,-1.89574 q 7.5829379,-1.89573 10.2369659,-6.44549 3.033175,-4.54977 3.033175,-12.13271 V 95.924168 Q 18.578199,87.582932 15.92417,83.412324 13.270142,78.862557 5.6872041,77.345971 L 0,75.829385 v -6.824651 l 61.800947,-21.990517 4.549763,4.170618 3.412322,33.364925 v 2.654033 q 5.687204,-10.61612 14.407584,-19.715644 8.720383,-9.099524 18.957344,-14.786728 10.23697,-5.687204 20.47393,-5.687204 14.40759,0 21.61138,7.582938 7.20379,7.582939 7.20379,19.336495 0,12.890994 -7.20379,19.715635 -7.20379,6.445505 -17.44076,6.445505 -15.16588,0 -26.16114,-13.649295 l -0.75829,-0.758298 q -3.791473,-4.549757 -8.720379,-4.928906 -4.549763,-0.758298 -9.099526,4.549767 -3.791469,3.791469 -7.203792,9.099524 -3.033175,4.928907 -5.687204,11.753558 v 99.33649 q 0,7.20379 3.033176,12.13269 3.033175,4.54977 10.236967,6.4455 l 11.374412,3.41233 v 7.20378 z M 239.99988,240 q -23.50711,0 -37.15639,-11.37441 -13.27014,-11.75355 -13.27014,-37.91469 0,-9.09952 0,-17.06161 0.37914,-8.34124 0.37914,-19.3365 V 64.454977 h -26.91943 v -8.341236 l 10.23696,-1.516586 q 10.99526,-1.895734 18.5782,-6.82465 7.96209,-4.928906 14.40759,-13.649282 L 230.90036,0 h 11.37441 l -1.13745,52.701421 h 43.22275 v 11.753556 h -43.6019 V 193.74407 q 0,13.64929 5.68721,20.47393 6.06635,6.82465 14.78673,6.82465 7.58294,0 13.64928,-3.41233 6.06636,-3.79147 12.13271,-9.85781 l 4.92891,5.68721 q -7.20379,12.51184 -20.09479,19.71563 Q 258.95723,240 239.99988,240 Z M 398.48291,47.014217 q 23.88626,0 40.94786,9.857822 17.06161,9.857812 26.16115,27.298573 9.47867,17.061608 9.47867,39.431278 0,4.92892 -0.37915,9.47867 -0.37915,4.17062 -1.51658,7.96209 H 359.05163 q 0.37915,39.05213 14.40758,56.11374 14.40759,17.06161 41.70616,17.06161 18.95735,0 30.7109,-6.06635 11.75356,-6.44549 21.61138,-17.8199 l 6.06635,5.6872 Q 462.17959,216.87204 442.46395,228.62559 423.12746,240 396.20802,240 q -26.91942,0 -47.39336,-11.37441 -20.47393,-11.37441 -32.22748,-32.60664 -11.37441,-21.61137 -11.37441,-51.56398 0,-31.09004 13.27015,-52.70142 13.64928,-21.611369 34.88151,-32.985777 21.61138,-11.753556 45.11848,-11.753556 z m -1.89574,10.995259 q -10.99526,0 -19.33649,6.445501 -7.96208,6.066343 -12.89099,21.990518 -4.54976,15.545025 -5.30806,43.981045 h 67.8673 Q 431.08955,92.132699 423.88576,75.071087 416.68197,58.009476 396.58717,58.009476 Z M 494.40719,234.69193 V 227.109 l 8.34122,-2.27488 q 6.06635,-1.89573 7.96209,-5.30806 1.89573,-3.79147 2.27488,-9.85781 v -75.0711 q 0,-12.51185 0,-21.23222 0,-8.72039 -0.37915,-20.473933 0,-6.445502 -1.89573,-9.857822 -1.89574,-3.79147 -8.34123,-5.308055 l -7.96208,-1.895735 v -6.824651 l 61.42179,-21.990517 4.54977,4.170618 2.65402,25.402838 q 13.27014,-12.132696 29.57347,-20.853081 16.30331,-8.720375 33.36492,-8.720375 18.95735,0 29.57346,7.582938 10.61612,7.582939 16.30332,23.127965 14.40758,-14.407589 31.84834,-22.369677 17.44076,-8.341226 34.50237,-8.341226 25.78199,0 38.67298,12.890993 12.891,12.890994 12.891,40.56873 v 109.57344 q 0,12.13271 10.61612,15.16588 l 7.20379,1.89574 v 7.58293 H 722.27448 V 227.109 l 6.82464,-1.89574 q 10.23697,-3.41232 10.23697,-15.54501 V 98.578201 q 0,-16.303324 -6.06635,-21.990528 -5.68721,-6.066353 -18.95735,-6.066353 -10.23696,0 -19.33649,4.170618 -9.09953,4.170619 -20.09479,12.890994 2.27489,11.374408 2.27489,26.161148 v 96.3033 q 0.37915,6.44551 2.27488,10.23698 2.27487,3.41232 8.34123,4.9289 l 6.4455,1.89574 v 7.58293 H 608.5304 V 227.109 l 7.96209,-2.27488 q 6.06635,-1.89573 7.96209,-5.30806 2.27488,-3.79147 2.27488,-9.85781 V 98.95734 q 0,-15.545016 -5.6872,-21.990518 -5.68721,-6.445502 -19.3365,-6.445502 -17.44076,0 -37.53554,16.682473 V 210.04738 q 0,12.51186 10.61611,15.16588 l 6.4455,1.89574 v 7.58293 z m 329.09977,0 v -7.20378 l 5.6872,-1.51659 q 7.58294,-2.27488 10.23697,-6.82464 2.65403,-4.54977 3.03318,-12.13271 v -69.76303 q 0,-11.75356 0,-21.61137 0,-10.23697 -0.37915,-20.853079 0,-7.582938 -3.03317,-11.753556 -2.65404,-4.549767 -10.23698,-6.066353 l -5.30805,-1.137437 v -6.824651 l 66.35071,-21.990517 4.54977,4.170618 -1.13745,53.838855 v 102.36967 q 0,7.58294 2.65403,12.1327 3.03318,4.54976 10.23697,6.82465 l 4.17061,1.13744 v 7.20378 z M 992.60651,240 q -18.19905,0 -32.98579,-4.17062 -14.40758,-3.79147 -27.67772,-10.99526 v -44.73934 h 10.23697 l 11.37441,21.61138 q 7.20379,14.02843 16.30331,20.85308 9.47868,6.82464 23.88623,6.82464 17.81998,0 28.43608,-7.58294 10.6161,-7.96209 10.6161,-21.23223 0,-12.13269 -7.9621,-19.71563 -7.9621,-7.58294 -28.436,-14.02844 l -16.68248,-5.30806 q -22.36967,-6.82464 -35.63981,-20.47393 -12.891,-14.02844 -12.891,-34.88151 0,-16.303325 8.72038,-29.573467 8.72038,-13.649291 25.40284,-21.611369 16.68245,-7.962087 40.56867,-7.962087 15.545,0 28.4361,3.791469 13.2701,3.41232 25.782,9.857822 l -2.2749,40.568712 h -9.8578 l -11.7536,-21.611366 q -6.0664,-12.132705 -12.5118,-16.682472 -6.0664,-4.928906 -18.9574,-4.928906 -13.64927,0 -24.2654,7.203789 -10.23696,6.824651 -10.23696,19.336495 0,11.753557 8.72038,19.3365 8.72039,7.20379 28.05688,13.64928 l 16.3033,4.92891 q 27.6777,8.72038 39.4313,23.12797 11.7535,14.40758 11.7535,34.50236 0,26.91943 -21.6113,43.6019 Q 1031.6586,240 992.60651,240 Z"
     inkscape:label="rtemis" />
  <path
     style="fill:url(#linearGradient5);stroke:none;stroke-width:7.25106"
     d="m 1248.1227,0.03276546 c -6.1291,0.14706 -12.3604,0.78678 -16.9675,1.87886004 -9.1308,2.1644 -24.5617,8.1648405 -28.7954,11.1976105 -2.1975,1.57353 -6.1693,3.97189 -8.8266,5.32854 -7.1704,3.66028 -11.7213,6.77122 -13.6996,9.36596 -0.9698,1.27203 -3.3431,3.22934 -5.2743,4.34898 -5.7379,3.32698 -24.9503,10.29637 -38.644,14.01943 -7.0322,1.9117 -13.8271,4.00924 -15.097,4.66056 -3.7214,1.90458 -2.8886,3.39626 2.2519,4.0386 2.5112,0.31365 5.0333,1.1343 5.6059,1.82338 0.7419,0.89394 2.6251,1.23282 6.5736,1.18019 3.0437,-0.0394 6.4801,-0.0152 7.6358,0.0531 1.1557,0.0686 3.5202,-0.15779 5.2542,-0.50277 2.3635,-0.47071 3.1523,-0.35194 3.1523,0.47798 0,0.60869 0.7894,1.94769 1.7537,2.97407 1.4141,1.50502 1.5768,2.19593 0.8403,3.57125 -0.5017,0.93783 -0.9123,2.45103 -0.9123,3.36234 0,0.91137 -1.3242,3.24175 -2.9422,5.17866 -1.6181,1.93694 -2.9434,4.10234 -2.9434,4.81162 0,0.70928 -1.3238,2.75586 -2.9422,4.54726 -1.6184,1.79111 -2.9421,3.67001 -2.9421,4.1755 0,0.50567 -1.5133,2.63845 -3.3624,4.73962 -1.8758,2.13081 -3.3624,4.68966 -3.3624,5.78645 0,1.08131 -1.5322,3.960004 -3.4048,6.396604 -2.8146,3.6645 -3.3335,4.91031 -2.9894,7.20268 0.3311,2.20546 -0.2592,3.83716 -2.8914,7.98632 -3.415,5.38366 -4.0394,7.94714 -2.3439,9.64212 0.7476,0.74711 0.033,2.9956 -2.9989,9.44149 -4.2484,9.03186 -4.5355,11.19256 -1.546,11.61893 1.0357,0.14718 1.8824,0.68088 1.8824,1.18491 0,0.50429 -2.2197,4.16684 -4.9332,8.13857 -9.02,13.20215 -11.2568,19.50137 -7.1354,20.08794 1.3835,0.19772 3.7701,-1.97312 10.3065,-9.37185 7.4657,-8.44965 10.6189,-11.31174 11.4975,-10.43285 0.3486,0.34907 -9.0776,14.89312 -12.7839,19.72209 -4.436,5.78049 -9.0237,15.73523 -8.3993,18.22561 0.5464,2.17525 2.3397,3.25341 4.2156,2.53386 0.6457,-0.24777 3.7087,-3.47838 6.8061,-7.17907 3.0975,-3.70052 5.8135,-6.54678 6.0343,-6.32579 0.2207,0.22074 -1.5187,4.04917 -3.8639,8.50678 -4.398,8.35471 -5.1793,12.03364 -3.019,14.19409 1.7028,1.70272 3.9293,0.94388 7.231,-2.46186 1.5288,-1.57735 3.0423,-2.86903 3.3624,-2.86903 0.3203,0 0.834,1.34419 1.1424,2.98705 1.1532,6.1482 5.1333,4.68868 15.1926,-5.56812 4.6098,-4.70231 8.0237,-7.52487 9.137,-7.52487 5.7791,-0.0597 16.2049,-8.73487 25.7375,-21.41801 5.2812,-7.02569 6.0072,-7.67761 8.2094,-7.35375 2.065,0.30303 3.0584,-0.34841 6.8344,-4.47881 4.8842,-5.3449 12.1175,-19.3179 15.1961,-29.35949 1.978,-6.45051 6.3094,-24.82255 7.7314,-32.786734 0.4956,-2.7742 2.983,-9.77174 5.5268,-15.55132 2.5438,-5.77957 5.5258,-13.51389 6.6279,-17.18705 2.7115,-9.03953 4.2573,-9.94527 8.7818,-5.14797 1.4968,1.58651 3.1816,4.22008 3.7424,5.85254 0.5647,1.64245 3.1346,4.96813 5.7534,7.44461 2.6037,2.46212 4.7337,5.04431 4.7337,5.73807 0,1.42833 7.0017,8.48601 9.8782,9.95723 1.2264,0.62726 1.8918,1.73317 1.8918,3.14755 0,1.51271 1.3508,3.52535 4.4127,6.5701 2.4271,2.414014 6.3048,6.369224 8.6166,8.790024 2.3123,2.42061 4.8664,4.76065 5.6766,5.1999 0.8091,0.43949 2.377,2.58236 3.4816,4.76205 2.3601,4.65385 4.0272,6.2818 8.2023,8.0052 2.3932,0.98775 3.2031,1.88491 3.6775,4.07636 1.006,4.64839 5.1029,11.93515 7.8399,13.94627 1.7595,1.29176 2.7457,2.88389 3.1275,5.04412 1.026,5.80801 5.162,13.3552 8.3511,15.23619 2.3966,1.41423 2.9303,2.24147 2.9587,4.49298 0.012,1.51889 1.2417,6.35541 2.7321,10.74795 2.3665,6.96989 2.9582,7.97935 4.6476,8.00756 2.4314,0.0276 3.492,1.67529 3.5205,5.44184 0.034,5.25788 5.4567,26.06205 6.7931,26.06205 0.4294,0 0.8203,-2.93398 0.8698,-6.51699 0.2567,-18.8187 2.4003,-28.66787 3.6668,-16.85305 1.1614,10.83332 3.7993,24.93232 5.9541,31.819 3.9413,12.5984 4.6194,10.60353 2.4937,-7.33958 -1.3262,-11.19921 -1.8719,-26.01255 -0.9914,-26.89409 0.3078,-0.30533 0.5571,0.47793 0.5571,1.74196 0,5.66015 6.0553,26.42124 11.128,38.1566 1.8572,4.29496 3.5351,7.64988 3.7317,7.45287 0.1954,-0.19562 -1.1648,-6.16876 -3.0236,-13.27355 -3.0663,-11.71867 -6.0365,-26.94742 -5.8844,-30.15257 0.034,-0.69309 1.3032,2.33345 2.8206,6.72588 3.0118,8.71055 10.3315,24.89015 10.9722,24.24928 0.2199,-0.21957 -0.3796,-2.45523 -1.3313,-4.96741 -5.6551,-14.93175 -9.3172,-28.20419 -8.9162,-32.31231 0.091,-0.92503 -0.7083,-5.46485 -1.7738,-10.08823 -4.5558,-19.76313 -5.1834,-23.44364 -6.451,-37.82851 -4.0433,-45.868694 -8.7818,-74.667084 -13.6689,-83.074474 -1.5944,-2.74264 -18.1872,-17.43638 -26.0455,-23.06438 -2.4175,-1.73146 -4.4139,-3.75865 -4.4139,-4.50477 -0.026,-1.9839 8.9902,-5.81764 13.0941,-5.56812 3.2055,0.19547 3.2851,0.13036 3.5348,-2.84189 0.2242,-2.68308 -0.1843,-3.4293 -3.4616,-6.314 -2.2945,-2.01948 -3.941,-4.29515 -4.3041,-5.94814 -0.7925,-3.6111805 -5.9614,-8.1080005 -11.39,-9.9112005 -4.7831,-1.58857004 -14.1803,-1.40496004 -28.3067,0.55351 -5.876,0.81436 -7.8859,0.7343 -14.0455,-0.55823 -4.1974,-0.88086004 -10.2236,-1.22692004 -16.3526,-1.07987004 z"
     id="logomark" />
</svg>
