<?xml version="1.0" encoding="UTF-8" standalone="no"?>
<!-- Created with Inkscape (http://www.inkscape.org/) -->

<svg
   width="1856.3413"
   height="242.67827"
   viewBox="0 0 1856.3413 242.67826"
   version="1.1"
   id="svg1"
   sodipodi:docname="rtemis-aiml.svg"
   inkscape:version="1.4.3 (0d15f75, 2025-12-25)"
   xmlns:inkscape="http://www.inkscape.org/namespaces/inkscape"
   xmlns:sodipodi="http://sodipodi.sourceforge.net/DTD/sodipodi-0.dtd"
   xmlns:xlink="http://www.w3.org/1999/xlink"
   xmlns="http://www.w3.org/2000/svg"
   xmlns:svg="http://www.w3.org/2000/svg">
  <sodipodi:namedview
     id="namedview1"
     pagecolor="#505050"
     bordercolor="#ffffff"
     borderopacity="1"
     inkscape:showpageshadow="0"
     inkscape:pageopacity="0"
     inkscape:pagecheckerboard="1"
     inkscape:deskcolor="#d1d1d1"
     inkscape:zoom="0.38909944"
     inkscape:cx="1177.077"
     inkscape:cy="520.43251"
     inkscape:window-width="1728"
     inkscape:window-height="1056"
     inkscape:window-x="0"
     inkscape:window-y="33"
     inkscape:window-maximized="1"
     inkscape:current-layer="svg1" />
  <defs
     id="defs1">
    <linearGradient
       id="linearGradient2"
       inkscape:collect="always">
      <stop
         style="stop-color:#479cff;stop-opacity:1;"
         offset="0"
         id="stop2" />
      <stop
         style="stop-color:#00ffb3;stop-opacity:1;"
         offset="1"
         id="stop3" />
    </linearGradient>
    <linearGradient
       inkscape:collect="always"
       xlink:href="#linearGradient2"
       id="linearGradient3"
       x1="8.0508728"
       y1="221.65109"
       x2="1864.3922"
       y2="221.65109"
       gradientUnits="userSpaceOnUse"
       gradientTransform="translate(-8.0509378,-100.31193)" />
  </defs>
  <path
     id="path10"
     style="font-size:383.378px;line-height:1.25;font-family:'DM Serif Text';-inkscape-font-specification:'DM Serif Text';font-variant-ligatures:none;white-space:pre;display:inline;fill:url(#linearGradient3)"
     d="m 0,237.31097 v -7.28418 l 5.7506702,-1.91689 q 7.6675588,-1.91689 10.3512048,-6.51742 3.067024,-4.60054 3.067024,-12.2681 V 96.99463 Q 18.785521,88.56031 16.101875,84.34316 13.418229,79.74262 5.7506702,78.20911 L 0,76.6756 v -6.90081 l 62.490612,-22.23592 4.600536,4.21716 3.450402,33.73726 v 2.68365 q 5.75067,-10.73459 14.568364,-19.93566 8.817698,-9.20107 19.168896,-14.95174 10.35121,-5.75067 20.70241,-5.75067 14.56837,0 21.85255,7.66756 7.28418,7.66756 7.28418,19.55228 0,13.03485 -7.28418,19.93565 -7.28418,6.51743 -17.63539,6.51743 -15.33512,0 -26.45308,-13.80161 l -0.76676,-0.76676 q -3.833778,-4.60053 -8.817688,-4.98391 -4.600536,-0.76676 -9.201072,4.60054 -3.83378,3.83378 -7.284182,9.20107 -3.067024,4.98391 -5.75067,11.88472 v 100.44503 q 0,7.28418 3.067024,12.26809 3.067024,4.60054 10.351206,6.51743 l 11.501344,3.4504 v 7.28418 z m 242.67815,5.3673 q -23.76944,0 -37.57104,-11.50134 -13.41823,-11.88472 -13.41823,-38.3378 0,-9.20107 0,-17.25201 0.38337,-8.43432 0.38337,-19.55228 V 65.17426 h -27.21983 v -8.43432 l 10.3512,-1.53351 q 11.11796,-1.91689 18.78552,-6.90081 8.05094,-4.98391 14.56837,-13.8016 L 233.47708,0 h 11.50134 l -1.15014,53.28954 h 43.70509 V 65.17426 H 243.4449 v 130.73189 q 0,13.80161 5.75067,20.70241 6.13405,6.90081 14.95175,6.90081 7.66756,0 13.8016,-3.45041 6.13405,-3.83378 12.2681,-9.96782 l 4.98391,5.75067 q -7.28418,12.65147 -20.31903,19.93565 -13.03485,6.90081 -32.20375,6.90081 z M 402.92976,47.53887 q 24.15282,0 41.40482,9.96783 17.25201,9.96782 26.45309,27.60321 9.58445,17.25201 9.58445,39.87131 0,4.98392 -0.38338,9.58445 -0.38338,4.21716 -1.53351,8.05094 H 363.05845 q 0.38338,39.48793 14.56836,56.73994 14.56837,17.25201 42.17158,17.25201 19.1689,0 31.05362,-6.13405 11.88472,-6.51742 21.85255,-18.01876 l 6.13404,5.75067 q -11.50134,21.08579 -31.43699,32.97051 -19.55228,11.50134 -46.77212,11.50134 -27.21983,0 -47.92225,-11.50134 -20.70241,-11.50134 -32.58712,-32.97051 -11.50134,-21.85255 -11.50134,-52.13941 0,-31.43699 13.41823,-53.28954 13.8016,-21.85254 35.27077,-33.35388 21.85255,-11.88472 45.62198,-11.88472 z m -1.91689,11.11796 q -11.11796,0 -19.55228,6.51743 -8.05093,6.13404 -13.03485,22.23592 -4.60053,15.7185 -5.36729,44.47185 h 68.62466 q 4.21716,-38.72118 -3.06702,-55.97319 -7.28418,-17.25201 -27.60322,-17.25201 z m 98.91163,178.65414 v -7.66756 l 8.43431,-2.30026 q 6.13405,-1.91689 8.05094,-5.3673 1.91689,-3.83378 2.30027,-9.96782 v -75.90885 q 0,-12.65147 0,-21.46916 0,-8.8177 -0.38338,-20.70241 0,-6.51743 -1.91689,-9.96783 -1.91689,-3.83378 -8.43431,-5.36729 L 499.9245,76.6756 v -6.90081 l 62.10723,-22.23592 4.60054,4.21716 2.68364,25.68632 q 13.41823,-12.26809 29.90349,-21.08579 16.48525,-8.81769 33.73726,-8.81769 19.1689,0 29.90348,7.66756 10.73459,7.66756 16.48526,23.38606 14.56836,-14.56837 32.20375,-22.61931 17.63539,-8.43431 34.8874,-8.43431 26.0697,0 39.10455,13.03485 13.03485,13.03485 13.03485,41.02145 V 212.3914 q 0,12.2681 10.73459,15.33512 l 7.28418,1.91689 v 7.66756 h -86.26005 v -7.66756 l 6.9008,-1.91689 q 10.35121,-3.4504 10.35121,-15.71849 V 99.67828 q 0,-16.48526 -6.13405,-22.23593 -5.75067,-6.13405 -19.1689,-6.13405 -10.3512,0 -19.55228,4.21716 -9.20107,4.21716 -20.31903,13.03485 2.30027,11.50134 2.30027,26.45309 v 97.378 q 0.38338,6.51743 2.30027,10.35121 2.30026,3.4504 8.43431,4.98391 l 6.51743,1.91689 v 7.66756 h -86.64343 v -7.66756 l 8.05094,-2.30026 q 6.13405,-1.91689 8.05094,-5.3673 2.30027,-3.83378 2.30027,-9.96782 V 100.06165 q 0,-15.71849 -5.75067,-22.23592 -5.75067,-6.51743 -19.55228,-6.51743 -17.63539,0 -37.95442,16.86864 V 212.3914 q 0,12.65148 10.73458,15.33512 l 6.51743,1.91689 v 7.66756 z m 332.77235,0 v -7.28418 l 5.75067,-1.53351 q 7.66756,-2.30027 10.35121,-6.9008 2.68364,-4.60054 3.06702,-12.2681 v -70.54155 q 0,-11.88472 0,-21.85254 0,-10.35121 -0.38338,-21.08579 0,-7.66756 -3.06702,-11.88472 -2.68365,-4.60054 -10.35121,-6.13405 l -5.36729,-1.15013 v -6.90081 l 67.09115,-22.23592 4.60054,4.21716 -1.15014,54.43967 v 103.51206 q 0,7.66756 2.68365,12.26809 3.06702,4.60054 10.3512,6.90081 l 4.21716,1.15013 v 7.28418 z m 170.98665,5.3673 q -18.40218,0 -33.35393,-4.21716 -14.56836,-3.83378 -27.98659,-11.11796 v -45.23861 h 10.35121 l 11.50134,21.85255 q 7.28418,14.18498 16.48525,21.08579 9.58445,6.9008 24.15282,6.9008 18.0188,0 28.7534,-7.66756 10.7346,-8.05094 10.7346,-21.46917 0,-12.26809 -8.051,-19.93565 -8.0509,-7.66756 -28.7533,-14.18499 l -16.86869,-5.36729 q -22.6193,-6.9008 -36.03753,-20.70241 -13.03485,-14.18499 -13.03485,-35.27077 0,-16.48526 8.81769,-29.90349 8.81769,-13.80161 25.68632,-21.85254 16.86862,-8.05094 41.02146,-8.05094 15.7185,0 28.7534,3.83378 13.4182,3.4504 26.0697,9.96783 l -2.3003,41.02144 h -9.9678 L 1047.772,80.50938 q -6.1341,-12.2681 -12.6515,-16.86864 -6.1341,-4.98391 -19.1689,-4.98391 -13.8016,0 -24.53624,7.28418 -10.3512,6.90081 -10.3512,19.55228 0,11.88472 8.81769,19.55228 8.81771,7.28418 28.37005,13.8016 l 16.4852,4.98392 q 27.9866,8.81769 39.8713,23.38606 11.8847,14.56836 11.8847,34.88739 0,27.21984 -21.8525,44.08847 -21.4692,16.48526 -60.9571,16.48526 z M 1842.585,28.00047 h 13.7563 v 213.0683 h -13.7563 z m -727.3516,0 v 193.416 l 7.5801,-2.2461 c 3.9301,-1.1229 6.9237,-2.8069 8.9824,-5.0527 2.2458,-2.2457 4.024,-5.3336 5.334,-9.2637 l 56.7051,-163.9414 h 23.3007 l 56.4258,165.0644 c 1.4973,4.1173 3.1814,7.2972 5.0528,9.543 1.8715,2.0586 4.8652,3.7446 8.9824,5.0547 l 4.2109,1.123 v 5.6133 h -71.3027 v -5.6133 l 4.7715,-1.4043 c 4.1172,-1.3101 6.5501,-3.3685 7.2988,-6.1757 0.9357,-2.8072 0.7494,-6.2696 -0.5605,-10.3868 l -11.7911,-36.2129 h -62.039 l -12.0723,35.6504 c -1.31,4.1172 -1.6844,7.4875 -1.123,10.1075 0.5614,2.6202 2.9022,4.6786 7.0195,6.1757 l 6.1758,1.9649 v 5.8945 h -42.9512 v 13.7578 h 278.2148 l 65.3887,-213.0683 z m 353.1484,0 -65.3906,213.0683 h 439.5938 v -64.0058 l -2.8067,50.248 h -135.3086 v -5.8945 l 5.6153,-1.6856 c 3.9301,-1.3101 6.4552,-2.9941 7.5781,-5.0527 1.1228,-2.2458 1.6855,-5.3336 1.6855,-9.2637 V 63.36957 c 0,-3.743 -0.5627,-6.6445 -1.6855,-8.7031 -1.1229,-2.2458 -3.5559,-4.024 -7.2988,-5.334 l -5.8946,-1.6836 v -5.8945 h 69.6192 v 5.8945 l -5.334,1.6836 c -3.5558,1.31 -5.9888,3.0882 -7.2988,5.334 -1.1229,2.2457 -1.6836,5.3336 -1.6836,9.2637 v 154.9589 h 41.2656 c 6.363,0 11.1349,-1.5899 14.3164,-4.7714 3.1815,-3.1815 6.1772,-7.7672 8.9844,-13.7559 l 10.3867,-23.2988 h 7.8594 V 28.00047 Z m -167.8711,13.7539 h 70.1797 v 5.8945 l -5.6132,1.6836 c -3.556,1.31 -5.9889,3.0882 -7.2989,5.334 -1.31,2.0586 -1.9648,5.0543 -1.9648,8.9844 v 141.7636 c 0,3.9301 0.6548,7.0179 1.9648,9.2637 1.31,2.0586 3.7429,3.7426 7.2989,5.0527 l 5.6132,1.6856 v 5.8945 h -70.1797 v -5.8945 l 5.6153,-1.6856 c 3.743,-1.3101 6.174,-2.9941 7.2969,-5.0527 1.31,-2.2458 1.9668,-5.3336 1.9668,-9.2637 V 63.65087 c 0,-3.9301 -0.6568,-6.9258 -1.9668,-8.9844 -1.1229,-2.2458 -3.5539,-4.024 -7.2969,-5.334 l -5.6153,-1.6836 z m 180.2227,0 h 53.6191 l 52.7754,137.2734 49.6875,-137.2734 h 54.7403 v 6.1758 l -4.4903,1.4023 c -3.5558,1.1229 -5.9887,2.901 -7.2988,5.334 -1.31,2.2457 -1.9648,5.2415 -1.9648,8.9844 -0.1872,10.8546 -0.2813,21.708 -0.2813,32.5625 v 32.5644 11.5098 32.5644 c 0,10.8546 0.094,21.6139 0.2813,32.2813 0,3.9302 0.4666,6.9258 1.4023,8.9844 0.9358,2.0587 3.1825,3.7427 6.7383,5.0527 l 5.6133,1.9648 v 6.1758 h -68.2149 v -6.1758 l 6.1758,-1.9648 c 3.5558,-1.31 5.7085,-2.994 6.457,-5.0527 0.9358,-2.2457 1.4043,-5.2414 1.4043,-8.9844 v -60.916 l 0.5606,-75.2325 -57.2676,158.3262 h -15.7207 l -60.3555,-156.6426 1.1231,64.0039 v 69.6192 c 0,4.1172 0.5627,7.3933 1.6855,9.8262 1.1229,2.4329 3.4618,4.1169 7.0176,5.0527 l 5.6133,1.9648 v 6.1758 h -39.3008 v -6.1758 l 5.6152,-1.6836 c 3.5559,-1.1229 5.9889,-2.901 7.2989,-5.3339 1.31,-2.62 1.9648,-5.9883 1.9648,-10.1055 v -138.959 c 0,-3.743 -0.4686,-6.7367 -1.4043,-8.9824 -0.9357,-2.433 -3.2746,-4.3053 -7.0176,-5.6153 l -6.457,-2.5253 z m -290.5469,33.125 -29.1953,84.498 h 56.7051 z m -88.7093,-46.8789 h 13.7562 v 213.0683 h -13.7562 z" />
</svg>
